# xmcd CD database file
#
# Track frame offsets:
#	150
#	73136
#	132392
#	161984
#
# Disc length: 2782 seconds
#
# Revision: 0
# Processed by: cddbd v1.5.1PL0 Copyright (c) Steve Scherf et al.
# Submitted via: CDex 1.51
#
DISCID=3b0adc04
DTITLE=Dave Holland Quintet - Montreal 2002
DYEAR=2002
DGENRE=Jazz
TTITLE0=Looking Up
TTITLE1=Not for Nothin'
TTITLE2=Make Believe
TTITLE3=Free For All
EXTD=YEAR: 2002
EXTT0=
EXTT1=
EXTT2=
EXTT3=
PLAYORDER=
